# xmcd CD database file
#
# Track frame offsets:
#	151
#	17227
#	39847
#	58711
#	75736
#	90186
#	106387
#	124542
#	146079
#	162004
#	180111
#	196047
#	220838
#
# Disc length: 3292 seconds
#
# Revision: 0
# Processed by: cddbd v1.5.2PL0 Copyright (c) Steve Scherf et al.
# Submitted via: CDex 1.51
#
DISCID=970cda0d
DTITLE=Bob De Marco - En Concert
DYEAR=2004
DGENRE=Jazz
TTITLE0=Le ministere de L'Amour
TTITLE1=Tu danseras
TTITLE2=Est-ce que tu m'aimes encore
TTITLE3=La Gare du Midi
TTITLE4=Message pour Marin
TTITLE5=Tes Heures de Cristal
TTITLE6=Danse pour moi
TTITLE7=Du bruit dans l'escalier
TTITLE8=La Dame de Coeur
TTITLE9=Je croyais
TTITLE10=Minuit
TTITLE11=Au Paradis
TTITLE12=Just turn the Corner (Instr.)
EXTD=YEAR: 2004
EXTT0=
EXTT1=
EXTT2=
EXTT3=
EXTT4=
EXTT5=
EXTT6=
EXTT7=
EXTT8=
EXTT9=
EXTT10=
EXTT11=
EXTT12=
PLAYORDER=
